<svg width="9" height="13" viewBox="0 0 9 13" fill="none" xmlns="http://www.w3.org/2000/svg">
<path d="M0.224965 11.6535L0.680433 11.2741L6.41482 6.50947L0.695125 1.72429L0.239461 1.34394L0.692005 0.959639L1.09275 0.61923L1.41431 0.346123L1.73728 0.616962L8.32635 6.12764L8.78689 6.5119L8.32556 6.89522L1.71933 12.3845L1.39581 12.6547L0.675741 12.0387L0.224965 11.6535Z" fill="#403526"/>
<path d="M0.224965 11.6535L0.680433 11.2741L6.41482 6.50947L0.695125 1.72429L0.239461 1.34394L0.692005 0.959639L1.09275 0.61923L1.41431 0.346123L1.73728 0.616962L8.32635 6.12764L8.78689 6.5119L8.32556 6.89522L1.71933 12.3845L1.39581 12.6547L0.675741 12.0387L0.224965 11.6535Z" fill="#403526"/>
<path d="M0.224965 11.6535L0.680433 11.2741L6.41482 6.50947L0.695125 1.72429L0.239461 1.34394L0.692005 0.959639L1.09275 0.61923L1.41431 0.346123L1.73728 0.616962L8.32635 6.12764L8.78689 6.5119L8.32556 6.89522L1.71933 12.3845L1.39581 12.6547L0.675741 12.0387L0.224965 11.6535Z" stroke="#403526"/>
</svg>
