<svg width="12" height="7" viewBox="0 0 12 7" fill="none" xmlns="http://www.w3.org/2000/svg">
<path d="M1.31494 0.316414L1.65381 0.636726L5.99756 4.73438L10.3481 0.639656L10.687 0.319344L11.0298 0.63575L11.3394 0.921883L11.7339 1.28614L11.3433 1.65333L6.33936 6.36427L5.99658 6.68751L5.65381 6.36329L0.657715 1.64942L0.26709 1.28126L0.661621 0.917976L0.972168 0.631844L1.31494 0.316414Z" fill="#403526"/>
<path d="M1.31494 0.316414L1.65381 0.636726L5.99756 4.73438L10.3481 0.639656L10.687 0.319344L11.0298 0.63575L11.3394 0.921883L11.7339 1.28614L11.3433 1.65333L6.33936 6.36427L5.99658 6.68751L5.65381 6.36329L0.657715 1.64942L0.26709 1.28126L0.661621 0.917976L0.972168 0.631844L1.31494 0.316414Z" fill="#403526"/>
<path d="M1.31494 0.316414L1.65381 0.636726L5.99756 4.73438L10.3481 0.639656L10.687 0.319344L11.0298 0.63575L11.3394 0.921883L11.7339 1.28614L11.3433 1.65333L6.33936 6.36427L5.99658 6.68751L5.65381 6.36329L0.657715 1.64942L0.26709 1.28126L0.661621 0.917976L0.972168 0.631844L1.31494 0.316414Z" stroke="#403526"/>
</svg>
