<svg width="35" height="33" viewBox="0 0 35 33" fill="none" xmlns="http://www.w3.org/2000/svg">
<path fill-rule="evenodd" clip-rule="evenodd" d="M17.8663 0.301758C8.41637 0.301758 0.744141 7.53224 0.744141 16.438C0.744141 25.3438 8.41637 32.5743 17.8663 32.5743C27.3165 32.5743 34.9884 25.3438 34.9884 16.438C34.9884 7.53224 27.3165 0.301758 17.8663 0.301758ZM15.3645 15.6352C15.0689 18.8355 14.29 21.9394 13.0759 24.9573C12.7795 25.6941 13.1737 26.5189 13.9556 26.7982C14.7371 27.0776 15.6126 26.7064 15.909 25.9695C16.7682 23.8331 17.4253 21.6568 17.8663 19.4379C18.3076 21.6568 18.9647 23.8331 19.8239 25.9695C20.1203 26.7064 20.9958 27.0776 21.7773 26.7982C22.5592 26.5189 22.9534 25.6941 22.657 24.9573C21.4436 21.9412 20.6648 18.8387 20.3687 15.6412C22.1833 15.5573 23.9986 15.378 25.814 15.1001C26.6392 14.9736 27.2005 14.2395 27.0665 13.4618C26.9322 12.6844 26.1534 12.1555 25.3281 12.2817C20.3509 13.044 15.3733 13.0139 10.3957 12.2802C9.56964 12.1587 8.7942 12.6919 8.66521 13.4704C8.53585 14.2489 9.10164 14.9797 9.92768 15.1012C11.74 15.3684 13.5519 15.5477 15.3645 15.6352ZM17.8663 6.50095C19.3757 6.50095 20.6008 7.65559 20.6008 9.07773C20.6008 10.4999 19.3757 11.6545 17.8663 11.6545C16.3572 11.6545 15.132 10.4999 15.132 9.07773C15.132 7.65559 16.3572 6.50095 17.8663 6.50095Z" fill="#998176"/>
</svg>
