<svg width="38" height="36" viewBox="0 0 38 36" fill="none" xmlns="http://www.w3.org/2000/svg">
<path d="M18.5847 0.552734C8.39181 0.552734 0.120117 8.34816 0.120117 17.9542C0.120117 27.5602 8.39181 35.3556 18.5847 35.3556C28.7778 35.3556 37.0493 27.5602 37.0493 17.9542C37.0348 8.34816 28.7778 0.552734 18.5847 0.552734ZM28.6751 11.1263L18.7461 18.6868L18.7168 18.7144C18.6434 18.7697 18.5407 18.7697 18.4674 18.7144L8.50914 11.1263H28.6751ZM29.775 21.7966C29.775 23.4414 28.3524 24.7821 26.607 24.7821H10.5624C8.81712 24.7821 7.39451 23.4414 7.39451 21.7966V12.3841L17.3381 19.9584C17.6901 20.2486 18.1448 20.4006 18.5847 20.4006C19.0247 20.4006 19.4794 20.2486 19.8314 19.9584L29.775 12.3841V21.7966Z" fill="#998176"/>
</svg>
