<svg width="34" height="32" viewBox="0 0 34 32" fill="none" xmlns="http://www.w3.org/2000/svg">
<path d="M17.133 0.489258C7.95763 0.489258 0.558105 7.53245 0.558105 16.1098C0.558105 24.7569 8.0316 31.7304 17.133 31.7304C26.3084 31.7304 33.7079 24.6872 33.7079 16.1098C33.7079 7.53245 26.3084 0.489258 17.133 0.489258ZM27.4183 23.6412C26.9744 25.0358 24.9765 27.0582 23.1266 27.0582L22.9786 26.9884C20.2408 26.849 16.467 24.4083 12.9893 20.4334L11.7314 18.9689C8.25365 14.9941 6.40373 11.0889 6.84769 8.57848C7.14367 6.76539 9.9555 5.30092 11.5834 5.30092C12.3973 5.30092 12.6933 5.64965 12.7673 5.92855C13.6553 7.46277 14.8392 10.1127 14.8392 11.089V11.2284C14.6172 11.7166 14.1732 11.9955 13.8032 12.2047C13.2853 12.4837 12.9893 12.6929 12.9153 13.181C12.9153 13.3205 13.0633 14.0876 15.3572 16.7375L16.3191 17.8532C18.6129 20.4334 19.3529 20.7123 19.5009 20.7123C20.0928 20.7821 20.3148 20.5729 20.7588 20.1544C21.0547 19.8058 21.4247 19.4571 21.9427 19.3874H22.0907C23.1266 19.5966 25.6424 21.1307 27.1224 22.3162C27.3443 22.386 27.7143 22.7346 27.4183 23.6412Z" fill="#998176"/>
</svg>
