<svg width="33" height="32" viewBox="0 0 33 32" fill="none" xmlns="http://www.w3.org/2000/svg">
<path d="M17.8859 10.9883H15.1514V16.1427H17.8859C19.3963 16.1427 20.6207 14.9888 20.6207 13.5653C20.6207 12.1419 19.3963 10.9883 17.8859 10.9883Z" fill="#998176"/>
<path d="M16.5179 0.678711C7.4563 0.678711 0.109375 7.60262 0.109375 16.1425C0.109375 24.6835 7.4563 31.6063 16.5179 31.6063C25.5808 31.6063 32.9265 24.6835 32.9265 16.1425C32.9265 7.60262 25.5808 0.678711 16.5179 0.678711ZM17.8852 18.7199H15.1507V23.8744H12.4158V8.4106H17.8852C20.9056 8.4106 23.3549 10.7186 23.3549 13.5651C23.3549 16.4116 20.9056 18.7199 17.8852 18.7199Z" fill="#998176"/>
</svg>
