<svg width="33" height="32" viewBox="0 0 33 32" fill="none" xmlns="http://www.w3.org/2000/svg">
<path d="M16.5392 10.3789C16.5392 10.3789 14.0534 10.3789 13.5562 12.6173C13.059 14.8556 17.0363 21.123 17.0363 21.123L19.025 16.6463C19.5221 14.8556 20.0193 14.7957 20.0193 13.0649C20.0193 11.3341 18.1867 10.3789 16.5392 10.3789Z" fill="#998176"/>
<path d="M16.5437 0.584961C7.50936 0.584961 0.18457 7.488 0.18457 16.0021C0.18457 24.5174 7.50936 31.4193 16.5437 31.4193C25.5792 31.4193 32.9028 24.5174 32.9028 16.0021C32.9028 7.488 25.5792 0.584961 16.5437 0.584961ZM20.4738 21.5704C18.4852 25.0537 16.9937 26.9424 16.9937 26.9424L15.0051 24.2564L11.5249 19.332C11.5249 19.332 9.03914 16.0021 9.03914 13.0646C9.03914 9.48328 12.7057 6.34959 16.4965 6.34959C20.2874 6.34959 24.4511 9.48328 24.4511 13.0646C24.4511 16.1983 22.4625 18.087 20.4738 21.5704Z" fill="#998176"/>
</svg>
