<svg width="69" height="63" viewBox="0 0 69 63" fill="none" xmlns="http://www.w3.org/2000/svg">
<path d="M10.886 61.0131C11.3523 61.5818 12.085 61.8346 12.7512 61.8346C13.2841 61.8346 13.817 61.645 14.2832 61.3291L22.8096 55.1362C23.4758 55.1994 24.0753 55.2626 24.7414 55.2626H43.6593C44.5919 55.2626 45.6577 55.2626 46.7235 54.8835C47.9225 54.4411 48.9217 53.6196 49.6544 52.9245C49.8543 52.7349 69.838 34.2828 67.8396 30.0489C67.7064 29.7961 67.5066 29.6065 67.2401 29.4801C64.7755 28.5323 62.2442 29.9857 60.8453 30.8072L57.7812 32.5134V23.1609H60.1792V13.5557H48.7885C49.9875 13.1133 50.9867 12.671 51.6528 12.0391C54.2507 9.57455 54.2507 5.59343 51.6528 3.19213C49.0549 0.727625 44.8583 0.727625 42.3271 3.19213C40.8616 4.51917 39.929 7.67878 39.3961 10.3329C38.8632 7.99474 38.0639 5.34067 36.8649 4.2032C34.5334 1.99147 30.6699 1.99147 28.3385 4.2032C25.9404 6.47813 25.9404 10.0801 28.3385 12.355C28.8047 12.7974 29.6041 13.2397 30.4701 13.5557H19.2792V23.1609H21.6772V34.9147C20.7446 34.9779 19.8121 35.1674 18.7463 35.4834C15.4157 36.5577 12.2183 38.7062 8.68779 42.1818L2.15977 47.8059C1.16059 48.6906 1.02736 50.0808 1.95994 51.0919L10.886 61.0131ZM57.9144 15.7042V21.0124H45.7243V15.7042H57.9144ZM55.5163 23.1609V33.7772L50.7202 36.4945C50.587 36.5577 50.254 36.7473 49.8543 36.9368C48.7219 37.4424 47.9225 37.8215 47.323 38.2007C46.9899 37.9479 46.6569 37.7583 46.2572 37.632C46.0574 37.5688 45.8575 37.5056 45.7243 37.4424V23.1609H55.5163ZM43.8592 4.70874C44.7251 3.88724 45.7909 3.50809 46.9233 3.50809C48.0557 3.50809 49.1215 3.88724 49.9875 4.70874C51.6528 6.35174 51.6528 8.94263 49.9875 10.5224C48.7885 11.6599 44.4587 12.5446 41.1947 13.0501C41.6609 9.95371 42.6601 5.8462 43.8592 4.70874ZM43.4595 15.7042V37.0632H40.1955C38.7966 37.0632 37.3978 37.1264 36.0655 37.0632V15.7042H43.4595ZM29.9372 10.8384C28.4717 9.44817 28.4717 7.11005 29.9372 5.71982C30.6699 5.0247 31.6691 4.64555 32.6017 4.64555C33.6008 4.64555 34.5334 5.0247 35.2662 5.71982C36.2653 6.6677 37.1313 10.2065 37.5976 13.0501C34.6 12.6078 30.8697 11.7863 29.9372 10.8384ZM21.544 21.0124V15.7042H33.7341V21.0124H21.544ZM33.7341 23.1609V37C32.7349 36.8736 31.7357 36.7473 30.7365 36.4945C30.0704 36.3049 29.4043 36.1153 28.7381 35.9889C27.1394 35.5466 25.5407 35.1043 23.8754 34.9779V23.1609H33.7341ZM3.69186 49.4489L10.2865 43.7616L10.3531 43.6984C13.6171 40.4756 16.5481 38.5166 19.5456 37.5056C20.678 37.1264 21.7438 37 22.743 37C24.5416 37 26.2069 37.4424 28.1386 38.0111C28.8048 38.2007 29.4709 38.3903 30.2036 38.5798C33.4676 39.4013 37.0647 39.3381 40.2621 39.275H42.1272C43.2596 39.275 44.4587 39.275 45.4579 39.6541C45.7909 39.7805 46.124 40.0333 46.3904 40.2228C46.457 40.3492 46.5237 40.4124 46.6569 40.5388C46.7901 40.7284 46.8567 40.8548 46.9233 41.0443C47.0566 41.4867 46.9233 41.8658 46.5237 42.3082C45.9908 42.9401 45.1248 43.3193 44.059 43.3193L31.336 43.1297C30.6699 43.1297 30.0038 43.3825 29.4709 43.8248C28.938 44.3303 29.4043 45.2782 30.2036 45.2782H44.3254C45.8575 45.215 47.2564 44.5831 48.1223 43.5088C48.9217 42.561 49.2548 41.4867 48.9883 40.4124C48.9883 40.3492 48.9883 40.286 48.9217 40.2228C49.0549 40.0333 49.1215 39.8437 49.1215 39.5909C49.7211 39.275 50.4538 38.959 50.8535 38.7694C51.3198 38.5166 51.7194 38.3271 51.9193 38.2639L61.9777 32.6398C63.1768 31.9446 64.509 31.2495 65.708 31.3127C64.9087 34.1564 56.2491 44.0144 48.1223 51.3447C47.4562 51.9134 46.7901 52.5453 45.9908 52.8613C45.3246 53.1141 44.4587 53.1141 43.6593 53.1141H24.7414C24.0087 53.1141 23.3425 53.1141 22.743 52.9877C22.41 52.9245 22.0769 52.9877 21.8104 53.1773L12.8844 59.6229C12.8178 59.6861 12.6845 59.6861 12.5513 59.6229L3.69186 49.7649C3.62525 49.6385 3.62525 49.5121 3.69186 49.4489Z" fill="#806C63" stroke="#806C63"/>
</svg>
