<svg width="57" height="78" viewBox="0 0 57 78" fill="none" xmlns="http://www.w3.org/2000/svg">
<path fill-rule="evenodd" clip-rule="evenodd" d="M12.9246 52.3806L5.34665 69.6445C5.20188 69.9744 5.24431 70.3588 5.45736 70.6474C5.67041 70.9359 6.02017 71.0826 6.36979 71.0302L14.2875 69.8415L18.6781 76.6881C18.8719 76.9904 19.2115 77.1606 19.5637 77.1319C19.9161 77.1034 20.225 76.8805 20.3698 76.5506L28.2508 58.5965L36.1318 76.5506C36.2765 76.8805 36.5854 77.1034 36.9378 77.1319C37.2901 77.1606 37.6296 76.9904 37.8235 76.6881L42.2141 69.8415L50.1317 71.0302C50.4814 71.0826 50.8311 70.9359 51.0442 70.6474C51.2572 70.3588 51.2996 69.9744 51.1549 69.6445L43.5769 52.3806C50.8852 47.3329 55.6949 38.7793 55.6949 29.0852C55.6949 13.5846 43.3976 1 28.2508 1C13.1039 1 0.806641 13.5846 0.806641 29.0852C0.806641 38.7793 5.61637 47.3329 12.9246 52.3806ZM41.92 53.4394C38.296 55.5758 34.151 56.8895 29.729 57.1303L37.1738 74.0913L40.9347 68.2267C41.1412 67.9046 41.5116 67.7343 41.8841 67.7902L48.6661 68.8082L41.92 53.4394ZM14.5815 53.4394L7.83543 68.8082L14.6174 67.7902C14.9899 67.7343 15.3603 67.9046 15.5669 68.2267L19.3277 74.0913L26.7726 57.1303C22.3509 56.89 18.2052 55.5761 14.5815 53.4394ZM28.2508 2.98062C42.3294 2.98062 53.7595 14.6777 53.7595 29.0852C53.7595 43.4927 42.3294 55.1898 28.2508 55.1898C14.1721 55.1898 2.74205 43.4927 2.74205 29.0852C2.74205 14.6777 14.1721 2.98062 28.2508 2.98062ZM28.2508 5.72545C15.6525 5.72545 5.42422 16.1926 5.42422 29.0852C5.42422 41.9778 15.6525 52.445 28.2508 52.445C40.849 52.445 51.0773 41.9778 51.0773 29.0852C51.0773 16.1926 40.849 5.72545 28.2508 5.72545ZM28.2508 7.70607C39.7809 7.70607 49.1419 17.2858 49.1419 29.0852C49.1419 40.8846 39.7809 50.4644 28.2508 50.4644C16.7207 50.4644 7.35963 40.8846 7.35963 29.0852C7.35963 17.2858 16.7207 7.70607 28.2508 7.70607ZM29.1308 12.8191C28.9734 12.4667 28.6295 12.2406 28.2508 12.2406C27.872 12.2406 27.5282 12.4667 27.3707 12.8191L23.258 22.0261L13.4306 23.1838C13.0544 23.2281 12.7379 23.4929 12.6209 23.8616C12.504 24.2302 12.6077 24.6347 12.8867 24.8969L20.1722 31.7448L18.2112 41.6672C18.1362 42.0472 18.2846 42.437 18.5911 42.6647C18.8975 42.8925 19.3055 42.9164 19.6354 42.726L28.2508 37.7513L36.8661 42.726C37.1961 42.9164 37.6041 42.8925 37.9105 42.6647C38.2169 42.437 38.3654 42.0472 38.2903 41.6672L36.3293 31.7448L43.6148 24.8969C43.8938 24.6347 43.9976 24.2302 43.8807 23.8616C43.7636 23.4929 43.4471 23.2281 43.0709 23.1838L33.2435 22.0261L29.1308 12.8191ZM28.2508 15.6129L31.7103 23.3577C31.8512 23.6732 32.1431 23.8901 32.4797 23.9299L40.7465 24.9037L34.618 30.664C34.3684 30.8987 34.2569 31.2498 34.3239 31.5897L35.9735 39.9365L28.7263 35.7517C28.4311 35.5813 28.0704 35.5813 27.7753 35.7517L20.528 39.9365L22.1776 31.5897C22.2446 31.2498 22.1332 30.8987 21.8836 30.664L15.755 24.9037L24.0218 23.9299C24.3584 23.8901 24.6503 23.6732 24.7912 23.3577L28.2508 15.6129Z" fill="#806C63" stroke="#806C63"/>
</svg>
