<svg width="68" height="49" viewBox="0 0 68 49" fill="none" xmlns="http://www.w3.org/2000/svg">
<path d="M66.781 23.3618L55.9156 9.54257C55.4071 8.89562 54.6612 8.52465 53.8691 8.52465H44.0922V3.56941C44.0922 2.00349 42.8949 0.729492 41.4234 0.729492H3.4614C1.98977 0.729492 0.79248 2.00349 0.79248 3.56941V39.0036C0.79248 40.5694 1.98977 41.8434 3.4614 41.8434H8.82956C9.22015 45.5582 12.1885 48.4561 15.7821 48.4561C19.3757 48.4561 22.344 45.5582 22.7347 41.8434H41.4234C41.9093 41.8434 42.364 41.7023 42.7569 41.4597C43.1492 41.7015 43.603 41.842 44.0881 41.842H47.4586C47.8487 45.5573 50.8172 48.4561 54.4112 48.4561C58.0054 48.4561 60.974 45.5575 61.3639 41.842H64.7344C66.2057 41.842 67.4028 40.5682 67.4028 39.0027V25.1832C67.4028 24.5175 67.1816 23.8703 66.781 23.3618ZM3.4614 3.57325L41.4197 3.56941L41.4205 11.3471C41.4205 11.3528 41.4197 11.3583 41.4197 11.364V38.9998H22.5182C21.6914 35.8684 18.9857 33.5649 15.7821 33.5649C12.5783 33.5649 9.87252 35.8686 9.04604 39.0005L3.46501 39.0037L3.4614 3.57325ZM15.7821 45.6125C13.3973 45.6125 11.4572 43.5482 11.4572 41.0106C11.4572 38.4729 13.3974 36.4087 15.7821 36.4087C18.1668 36.4087 20.107 38.4729 20.107 41.0106C20.107 43.5482 18.1668 45.6125 15.7821 45.6125ZM54.4113 45.6125C52.0265 45.6125 50.0864 43.5482 50.0864 41.0106C50.0864 38.4729 52.0267 36.4087 54.4113 36.4087C56.796 36.4087 58.7362 38.4729 58.7362 41.0106C58.7362 43.5482 56.796 45.6125 54.4113 45.6125ZM61.1469 38.9983C60.3198 35.8676 57.6144 33.5649 54.4113 33.5649C51.2079 33.5649 48.5024 35.8681 47.6754 38.9993L44.0922 39.0029V11.3684L53.8657 11.3671L64.7302 25.1835L64.7344 38.9985L61.1469 38.9983Z" fill="#806C63"/>
<path d="M53.642 14.5063C53.389 14.1832 53.0139 13.9961 52.6191 13.9961H46.7516C46.0155 13.9961 45.4194 14.6311 45.4194 15.4134V22.5003C45.4194 23.2835 46.0154 23.9177 46.7516 23.9177H58.1683C59.2979 23.9177 59.9145 22.5166 59.1919 21.593L53.642 14.5063Z" fill="#806C63"/>
</svg>
