<svg width="53" height="52" viewBox="0 0 53 52" fill="none" xmlns="http://www.w3.org/2000/svg">
<path d="M15.0806 1.22949C17.556 1.22951 19.854 2.38276 21.8384 4.06543C23.6131 5.5704 25.1666 7.52326 26.4126 9.53906C27.6583 7.52356 29.2114 5.57117 30.9858 4.06641C32.9701 2.38388 35.2685 1.23057 37.7437 1.23047C45.5741 1.23047 51.9056 7.89254 51.9058 16.0342C51.9058 17.9816 51.5473 19.8807 50.8394 21.6777L50.8354 21.6875L50.8091 21.748C49.8308 24.1894 47.9169 27.0809 45.6138 30.0342C43.3047 32.9951 40.5799 36.0497 37.9556 38.8242C34.0188 42.9862 30.2955 46.5299 28.5103 48.1953L27.4351 49.1875L26.4604 50.0752L25.9839 50.5078L25.6821 49.9395L25.1812 48.9951C23.4368 47.3835 18.5851 42.8268 13.7153 37.5781C11.25 34.9209 8.77456 32.0806 6.69385 29.3525C4.62788 26.6438 2.93005 24.0177 2.02588 21.7744L2.01416 21.751L2.00439 21.7266L1.98486 21.6768C1.27711 19.8798 0.918457 17.9803 0.918457 16.0332C0.918579 7.89162 7.2498 1.22949 15.0806 1.22949ZM15.0806 4.42188C8.99966 4.42188 4.01233 9.60895 4.01221 16.0332C4.01221 17.5408 4.28544 19.0089 4.82275 20.3994L4.82764 20.4082L4.83643 20.4316L4.85596 20.4824L4.97607 20.7734C6.27545 23.8235 9.46367 28.0717 13.438 32.5889C17.4179 37.1124 22.1401 41.852 26.4116 45.8398C28.3571 44.0184 32.7757 39.8059 37.1597 35.0625C39.4918 32.5391 41.8102 29.8713 43.7407 27.3389C45.6768 24.7992 47.1997 22.424 47.9683 20.4824L47.9712 20.4766L47.9956 20.417C48.5369 19.0214 48.812 17.5476 48.812 16.0342C48.8119 9.60996 43.8244 4.42285 37.7437 4.42285C35.8466 4.42296 33.938 5.5264 32.2075 7.21387C30.487 8.89175 29.0076 11.0857 27.9741 13.1191L26.8608 15.3926L26.4116 16.3105L25.9634 15.3926L24.8472 13.1113V13.1104C23.8139 11.0792 22.3352 8.88881 20.6167 7.21289C18.8861 5.52528 16.9775 4.4219 15.0806 4.42188Z" fill="#806C63" stroke="#806C63"/>
</svg>
