<svg width="55" height="49" viewBox="0 0 55 49" fill="none" xmlns="http://www.w3.org/2000/svg">
<path d="M54.2941 13.9656C54.182 13.8476 47.2347 1.1046 47.2347 1.1046C47.0106 0.750629 46.6744 0.514648 46.2262 0.514648H8.6881C8.23988 0.514648 7.90372 0.750629 7.67961 1.1046C7.67961 1.1046 0.732259 13.8476 0.620205 13.9656C0.396097 14.4375 0.508151 14.9095 0.732259 15.2635L26.5047 48.0648C27.177 48.8908 28.0734 48.3008 28.1855 48.0648L53.9579 15.2635C54.4061 14.7915 54.5182 14.3195 54.2941 13.9656ZM51.3807 13.2576H38.7186L45.89 3.46441L51.3807 13.2576ZM27.9614 4.17235L34.3485 13.1396H21.9105L27.9614 4.17235ZM19.6694 12.4317L12.1618 2.75647H26.0565L19.6694 12.4317ZM29.7543 2.87446H43.649L36.4775 12.4317L29.7543 2.87446ZM35.0208 15.6174L27.8493 41.9293L21.3502 15.6174H35.0208ZM9.36042 2.99245L17.4283 13.2576H3.64566L9.36042 2.99245ZM18.885 15.6174L25.7203 43.2272L4.09388 15.6174H18.885ZM30.0904 42.1653L37.3739 15.6174H50.9325L30.0904 42.1653Z" fill="#806C63" stroke="#806C63"/>
</svg>
