<svg width="55" height="64" viewBox="0 0 55 64" fill="none" xmlns="http://www.w3.org/2000/svg">
<path d="M24.4381 33.6079L34.5718 23.3098C35.0337 22.8405 35.7825 22.8406 36.2444 23.3098C36.7063 23.7791 36.7063 24.5401 36.2444 25.0096L25.1707 36.2629C24.9482 36.4889 24.6471 36.615 24.3345 36.615C24.3115 36.615 24.2884 36.6143 24.2653 36.6129C23.9283 36.5928 23.6157 36.4275 23.4064 36.1581L18.1711 29.4234C17.7661 28.9027 17.8534 28.1468 18.3659 27.7353C18.8787 27.3238 19.6222 27.4126 20.027 27.9334L24.4381 33.6079ZM27.2535 13.348C36.1729 13.348 43.4293 20.7222 43.4293 29.7863C43.4293 38.8504 36.1729 46.2246 27.2535 46.2246C18.3342 46.2246 11.0777 38.8505 11.0777 29.7864C11.0777 20.7222 18.3342 13.348 27.2535 13.348ZM27.2535 15.7516C19.6383 15.7516 13.443 22.0475 13.443 29.7863C13.443 37.525 19.6383 43.821 27.2535 43.821C34.8688 43.821 41.0641 37.5251 41.0641 29.7864C41.0641 22.0477 34.8688 15.7516 27.2535 15.7516ZM53.7175 9.58863V32.0355C53.7175 35.6585 52.8607 39.3062 51.1709 42.8772C49.6569 46.077 47.513 49.1454 44.7988 51.9973C39.8899 57.1555 33.4454 61.1918 27.5596 62.7945C27.4593 62.8219 27.3564 62.8356 27.2535 62.8356C27.1506 62.8356 27.0477 62.8219 26.9475 62.7946C21.0617 61.1919 14.6171 57.1557 9.70821 51.9974C6.99404 49.1455 4.85015 46.0771 3.33613 42.8773C1.64637 39.3063 0.789551 35.6585 0.789551 32.0356V9.58863C0.789551 8.96188 1.26355 8.44028 1.87841 8.39053C9.14894 7.80283 15.2891 4.33278 19.16 1.5253C19.3605 1.37988 19.6008 1.30176 19.8471 1.30176H34.6599C34.9063 1.30176 35.1465 1.37988 35.3471 1.5253C39.2178 4.33278 45.3581 7.80283 52.6286 8.39053C53.2435 8.44028 53.7175 8.96188 53.7175 9.58863ZM51.3522 10.6781C45.6208 9.99786 39.7503 7.60212 34.2839 3.70542H20.2232C14.7568 7.60212 8.88639 9.99786 3.15495 10.6781V32.0356C3.15495 45.9244 17.2927 57.5184 27.2536 60.3871C37.2146 57.5183 51.3523 45.9242 51.3523 32.0356L51.3522 10.6781Z" fill="#806C63" stroke="#806C63"/>
</svg>
