<svg width="58" height="61" viewBox="0 0 58 61" fill="none" xmlns="http://www.w3.org/2000/svg">
<path d="M51.0726 47.0861C51.192 47.1708 51.3282 47.211 51.4623 47.211C51.6872 47.211 51.9072 47.0985 52.0419 46.8896C55.1637 42.0586 56.8132 36.4097 56.8132 30.5562C56.8132 14.4485 44.2816 1.34375 28.879 1.34375C22.491 1.34375 16.2978 3.64277 11.345 7.82307L11.3331 2.0726C11.3324 1.66947 11.0188 1.34375 10.6347 1.34375H10.6333C10.2471 1.34448 9.93497 1.67239 9.93637 2.07552L9.95103 9.38156C9.95173 9.78323 10.2632 10.1097 10.648 10.1104L17.608 10.125H17.6094C17.9942 10.125 18.3071 9.80003 18.3078 9.3969C18.3078 8.99376 17.9963 8.66585 17.6108 8.66512L12.5811 8.65417C17.2246 4.87335 22.9659 2.80437 28.879 2.80437C43.512 2.80437 55.4165 15.254 55.4165 30.5562C55.4165 36.1175 53.8493 41.4831 50.884 46.0724C50.6689 46.4062 50.7527 46.8604 51.0726 47.0861ZM6.68544 14.0263C6.36559 13.7999 5.9312 13.889 5.7161 14.2235C2.59438 19.0538 0.944824 24.702 0.944824 30.5562C0.944824 46.664 13.4757 59.7687 28.879 59.7687C35.2635 59.7687 41.4218 57.4916 46.3712 53.331L46.3823 59.0398C46.3823 59.443 46.6952 59.7687 47.0807 59.7687H47.0814C47.4676 59.7679 47.7798 59.44 47.7791 59.0369L47.7651 51.7155C47.7644 51.3124 47.4508 50.9867 47.0667 50.9867H40.1054C39.7199 50.9867 39.407 51.3139 39.407 51.717C39.407 52.1201 39.7199 52.4473 40.1054 52.4473H45.1804C40.5342 56.2347 34.8096 58.308 28.8797 58.308C14.246 58.308 2.34157 45.8584 2.34157 30.5562C2.34157 24.9956 3.90872 19.6308 6.87331 15.04C7.0891 14.7063 7.006 14.252 6.68544 14.0263Z" fill="#806C63" stroke="#806C63"/>
<path d="M26.8159 28.0426C27.5161 27.3439 27.8662 26.4926 27.8662 25.4887C27.8662 24.7457 27.6863 24.1274 27.3264 23.6337C26.9656 23.1385 26.4604 22.8128 25.8109 22.6565C26.3109 22.4155 26.6885 22.0912 26.9437 21.6837C27.1988 21.2757 27.3264 20.8232 27.3264 20.3261C27.3264 19.8032 27.1925 19.309 26.9248 18.8435C26.6576 18.3781 26.2711 18.0105 25.7655 17.7408C25.2608 17.4715 24.7082 17.3369 24.1076 17.3369C23.2369 17.3369 22.5095 17.5971 21.9252 18.1176C21.3399 18.6386 20.9647 19.372 20.7994 20.318L22.15 20.5693C22.2497 19.8794 22.4748 19.3616 22.8254 19.0159C23.1746 18.6707 23.6122 18.4981 24.1383 18.4981C24.6681 18.4981 25.1007 18.6683 25.4359 19.0086C25.7711 19.3484 25.9387 19.7771 25.9387 20.2947C25.9387 20.949 25.7085 21.433 25.248 21.7465C24.7876 22.0606 24.2701 22.2173 23.6955 22.2169C23.6397 22.2169 23.567 22.2117 23.4776 22.2015L23.3275 23.4409C23.7079 23.3362 24.0256 23.2838 24.2808 23.2838C24.9056 23.2838 25.4205 23.4944 25.8256 23.9156C26.2306 24.3362 26.4332 24.8711 26.4332 25.5201C26.4332 26.1992 26.2143 26.7691 25.7767 27.2297C25.3395 27.6903 24.8032 27.9206 24.1676 27.9206C23.6327 27.9206 23.1787 27.7439 22.8058 27.3904C22.4338 27.0384 22.1701 26.4619 22.0146 25.661L20.6646 25.8494C20.7545 26.8066 21.1183 27.5856 21.7562 28.1864C22.3935 28.7882 23.195 29.0891 24.1607 29.0891C25.2306 29.0891 26.1156 28.7402 26.8159 28.0426ZM33.4022 29.0811C34.2072 29.0811 34.8735 28.8551 35.401 28.4033C35.9285 27.9505 36.3249 27.3096 36.5903 26.4804C36.8557 25.6518 36.9884 24.5626 36.9884 23.213C36.9884 22.0732 36.9057 21.1674 36.7404 20.4955C36.5752 19.8227 36.3475 19.2525 36.0574 18.7851C35.7674 18.3167 35.3998 17.9582 34.9547 17.7094C34.5096 17.4611 33.9921 17.3369 33.4022 17.3369C32.6014 17.3369 31.9375 17.5619 31.4105 18.0117C30.882 18.4611 30.4844 19.1006 30.2176 19.9303C29.9495 20.7589 29.8156 21.8532 29.8161 23.213C29.8161 25.3733 30.1785 26.932 30.9034 27.8892C31.5087 28.6843 32.3416 29.0815 33.4022 29.0811ZM31.9014 19.3299C32.2716 18.7807 32.7667 18.5061 33.3869 18.5061C34.0168 18.5061 34.5431 18.8173 34.9659 19.4395C35.3886 20.0627 35.6 21.3205 35.6 23.213C35.6 25.0957 35.3886 26.3512 34.9659 26.9792C34.5431 27.6068 34.0217 27.9206 33.4015 27.9206C32.7818 27.9206 32.2604 27.6078 31.8372 26.9821C31.4149 26.3575 31.2037 25.1013 31.2037 23.2137C31.2037 21.3256 31.4358 20.031 31.9014 19.3299ZM21.6207 32.9787C21.1756 32.5814 20.6378 32.3068 20.0074 32.1549C19.5572 32.0454 18.9047 31.9906 18.0499 31.9906H14.2612V43.4916H18.2294C18.8952 43.4916 19.4841 43.4261 19.9963 43.2951C20.5084 43.1651 20.9461 42.9728 21.3092 42.7182C21.6724 42.465 22.0062 42.1176 22.3107 41.676C22.6156 41.2334 22.8656 40.675 23.0607 40.0007C23.2563 39.3259 23.354 38.5517 23.354 37.6783C23.354 36.6534 23.2102 35.7422 22.9224 34.9447C22.6347 34.1462 22.2008 33.4909 21.6207 32.9787ZM21.5648 39.8714C21.3721 40.4805 21.1032 40.9654 20.7582 41.3262C20.5133 41.5823 20.1844 41.7809 19.7714 41.9221C19.3589 42.0633 18.7899 42.1339 18.0646 42.1339H15.7166V33.3483H18.0269C18.8928 33.3483 19.5207 33.4267 19.9104 33.5834C20.4504 33.8025 20.909 34.2353 21.2862 34.8819C21.6642 35.5275 21.8532 36.4518 21.8532 37.6549C21.8532 38.5225 21.7576 39.2614 21.5648 39.8714ZM27.5163 40.008H32.1151L33.398 43.4916H35.056L30.5543 31.9906H28.9864L24.7634 43.4916H26.3089L27.5163 40.008ZM29.1435 35.3953C29.3991 34.6684 29.597 33.9362 29.7372 33.1986C29.9066 33.8208 30.1667 34.6158 30.5172 35.5837L31.6647 38.7686H27.9368L29.1435 35.3953ZM40.1576 43.4916V38.6189L44.5461 31.9899H42.8505L40.7205 35.3712C40.2502 36.1244 39.8501 36.8017 39.52 37.403C39.1745 36.7544 38.802 36.1059 38.4026 35.4574L36.2341 31.9899H34.4637L38.7029 38.6189V43.4901L40.1576 43.4916Z" fill="#806C63" stroke="#806C63"/>
</svg>
