<svg width="75" height="60" viewBox="0 0 75 60" fill="none" xmlns="http://www.w3.org/2000/svg">
<path d="M29.031 33.7817C37.3826 33.7817 43.9281 28.6597 43.9281 22.1301C43.4752 6.66756 14.613 6.66756 14.1602 22.1301C14.1602 28.6597 20.7004 33.7817 29.031 33.7817ZM29.031 13.6662C45.2604 14.2767 45.2604 29.99 29.031 30.5684C12.8016 29.99 12.8226 14.2703 29.031 13.6662Z" fill="#806C63"/>
<path d="M70.0468 40.8067H57.4192C57.6035 39.8042 57.6825 22.1308 57.6825 22.1308C57.6825 10.0551 44.8338 0.21582 29.0362 0.21582C13.2386 0.21582 0.379395 10.0551 0.379395 22.1308V37.7476C1.03763 52.9146 16.9405 59.7654 29.031 59.6626H70.0521C72.29 59.6369 74.1015 57.4261 74.1015 54.714V45.7553C74.1015 43.0175 72.29 40.8067 70.0468 40.8067ZM54.7021 40.8067H43.965C48.3251 38.9494 52.1744 35.6654 55.0549 31.2695C55.0549 31.2695 54.9496 39.8299 54.7021 40.8067ZM29.031 3.42916C43.391 3.42916 55.0549 11.816 55.0549 22.1308C53.8016 46.8606 4.2656 46.8349 3.01233 22.1308C3.01233 11.816 14.6973 3.42916 29.031 3.42916ZM3.01233 37.7476V31.2695C7.55677 38.7759 17.5145 44.0201 29.031 44.0201H63.7751C63.4855 46.2565 64.0384 48.5444 65.2759 50.2218C65.4234 50.4018 65.5234 50.6524 65.5234 50.9287C65.5234 51.1794 65.4181 51.43 65.2759 51.6035C64.644 52.3812 64.2701 53.4351 64.2701 54.5662V56.4493H60.1733V50.2218C60.1733 49.3478 59.5782 48.6151 58.8568 48.6151C58.1196 48.6151 57.5404 49.3478 57.5404 50.2218V56.4493H52.2376V52.8824C52.2376 51.9827 51.6373 51.2758 50.9212 51.2758C50.1787 51.2758 49.6047 51.9827 49.6047 52.8824V56.4493H44.2756V50.2218C44.2756 49.3478 43.6964 48.6151 42.9592 48.6151C42.2378 48.6151 41.6427 49.3478 41.6427 50.2218V56.4493H36.3347V52.8824C36.3347 51.9827 35.7555 51.2758 35.0183 51.2758C34.2968 51.2758 33.7018 51.9827 33.7018 52.8824V56.4493H29.031C28.8256 56.4493 28.6202 56.4235 28.3991 56.4235V50.2218C28.3991 49.3478 27.7988 48.6408 27.0826 48.6408C26.3612 48.6408 25.7819 49.3478 25.7661 50.2218V56.2757C23.9898 56.1258 22.2257 55.8237 20.4739 55.3696V52.8824C20.4739 51.9827 19.8789 51.2758 19.1575 51.2758C18.4202 51.2758 17.841 51.9827 17.841 52.8824V54.5919C16.0155 53.9878 14.2479 53.1845 12.5383 52.1819V47.9146C12.5172 47.0342 11.938 46.308 11.2218 46.308C10.5004 46.308 9.90534 47.0342 9.90534 47.9146V50.376C5.64526 47.0342 3.01233 42.619 3.01233 37.7476ZM71.4686 54.714C71.4686 55.6716 70.8314 56.4493 70.0468 56.4493H66.9031C66.9663 55.8709 66.7188 54.2899 67.1506 53.8914C68.467 52.2334 68.467 49.5727 67.1295 47.9403C66.6766 47.3876 66.4081 46.6357 66.4081 45.8581V44.0201H70.0468C70.8314 44.0201 71.4686 44.7977 71.4686 45.7553V54.714Z" fill="#806C63"/>
</svg>
