<svg width="25" height="26" viewBox="0 0 25 26" fill="none" xmlns="http://www.w3.org/2000/svg">
<path d="M12.3692 26C13.1743 25.999 13.9717 25.9303 14.7614 25.794C15.5514 25.6581 16.3201 25.4571 17.0672 25.1909C17.8136 24.9248 18.5251 24.5985 19.2017 24.2121C19.8783 23.8253 20.5076 23.3856 21.0895 22.8927C21.6715 22.3999 22.1955 21.8626 22.6617 21.2807C23.1278 20.6989 23.5276 20.0834 23.8612 19.4342C24.1947 18.7851 24.4561 18.1135 24.6455 17.4195C24.8349 16.7262 24.9483 16.023 24.9859 15.3099C25.0239 14.5972 24.9851 13.8877 24.8698 13.1815C24.7547 12.4752 24.5656 11.785 24.3022 11.1107C24.0385 10.4364 23.7051 9.79045 23.3022 9.1729C22.8997 8.55502 22.4349 7.97656 21.9078 7.43753C21.3803 6.89816 20.8003 6.40807 20.1678 5.96726C19.5352 5.52611 18.8611 5.14205 18.1454 4.8151C17.4297 4.48814 16.686 4.22423 15.9143 4.02337C15.1414 3.82183 14.3546 3.68724 13.5538 3.61961V2.03922H16.9695V0H7.84378V2.03922H11.2537V3.64C10.4632 3.71817 9.68789 3.86091 8.9277 4.06824C8.1679 4.27556 7.43646 4.54405 6.7334 4.87373C6.03071 5.2034 5.36867 5.58864 4.74725 6.02945C4.12622 6.46992 3.55714 6.95797 3.04 7.49361C2.52324 8.0289 2.06705 8.6026 1.67143 9.21471C1.27658 9.82647 0.949581 10.4658 0.690435 11.1326C0.431673 11.7994 0.245173 12.4817 0.130934 13.1795C0.0166952 13.8772 -0.0227886 14.5784 0.0124798 15.2829C0.0469814 15.9871 0.156236 16.6823 0.340245 17.3685C0.52272 18.0547 0.776306 18.7197 1.101 19.3634C1.42532 20.0071 1.81481 20.6182 2.26946 21.1966C2.72373 21.7751 3.23531 22.3111 3.80421 22.8046C4.37272 23.2974 4.988 23.7389 5.65004 24.129C6.31286 24.5195 7.01075 24.8514 7.74372 25.1247C8.47669 25.3983 9.23208 25.6086 10.0099 25.7558C10.7877 25.9026 11.5742 25.984 12.3692 26ZM12.3692 5.60784C13.0489 5.60784 13.7221 5.66664 14.3887 5.78424C15.055 5.90149 15.7021 6.0755 16.33 6.30627C16.958 6.53671 17.5545 6.81948 18.1195 7.15459C18.6846 7.48902 19.2075 7.86933 19.6882 8.29553C20.1689 8.72173 20.5979 9.18531 20.9751 9.68628C21.3531 10.1872 21.672 10.7161 21.9319 11.2728C22.1919 11.8295 22.3881 12.4032 22.5208 12.9939C22.6534 13.5853 22.7197 14.1821 22.7197 14.7843C22.7197 15.3869 22.6534 15.9837 22.5208 16.5747C22.3881 17.1654 22.1919 17.7391 21.9319 18.2958C21.672 18.8526 21.3531 19.3814 20.9751 19.8824C20.5979 20.3833 20.1689 20.8469 19.6882 21.2731C19.2075 21.6993 18.6846 22.0796 18.1195 22.414C17.5545 22.7492 16.958 23.0319 16.33 23.2624C15.7021 23.4928 15.055 23.6668 14.3887 23.7844C13.7217 23.902 13.0485 23.9608 12.3692 23.9608C11.6899 23.9608 11.0168 23.902 10.3497 23.7844C9.68348 23.6668 9.03638 23.4928 8.40845 23.2624C7.78014 23.0319 7.18364 22.7492 6.61897 22.414C6.05391 22.0796 5.53101 21.6993 5.05029 21.2731C4.56957 20.8469 4.1406 20.3833 3.76338 19.8824C3.3854 19.3814 3.06645 18.8526 2.80654 18.2958C2.54662 17.7391 2.35035 17.1654 2.21771 16.5747C2.08507 15.9834 2.01875 15.3866 2.01875 14.7843C2.01875 14.1821 2.08507 13.5853 2.21771 12.9939C2.34996 12.4032 2.54624 11.8295 2.80654 11.2728C3.06645 10.7157 3.3854 10.1869 3.76338 9.68628C4.1406 9.18531 4.56957 8.72173 5.05029 8.29553C5.53101 7.86933 6.05391 7.48902 6.61897 7.15459C7.18364 6.81948 7.78014 6.53671 8.40845 6.30627C9.03638 6.07584 9.68348 5.90183 10.3497 5.78424C11.0168 5.66664 11.6899 5.60784 12.3692 5.60784Z" fill="white"/>
<path d="M19.12 19.2654L13.5882 14.361V9.44653H11.2881V15.2073L17.4926 20.7081L19.12 19.2654Z" fill="white"/>
</svg>
